<svg width="171" height="44" viewBox="0 0 171 44" fill="none" xmlns="http://www.w3.org/2000/svg">
<g opacity="0.4">
<path d="M21.9678 3.66138L3.66138 12.8146L21.9678 21.9678L40.2743 12.8146L21.9678 3.66138Z" stroke="white" stroke-width="3.66129" stroke-linecap="round" stroke-linejoin="round"/>
<path d="M3.66138 31.1208L21.9678 40.2741L40.2743 31.1208" stroke="white" stroke-width="3.66129" stroke-linecap="round" stroke-linejoin="round"/>
<path d="M3.66138 21.9678L21.9678 31.121L40.2743 21.9678" stroke="white" stroke-width="3.66129" stroke-linecap="round" stroke-linejoin="round"/>
<path d="M67.737 31.957C66.1313 31.957 64.7531 31.5507 63.6025 30.738C62.4583 29.9189 61.5775 28.739 60.9599 27.1983C60.3488 25.6511 60.0433 23.7886 60.0433 21.6108C60.0498 19.433 60.3586 17.5803 60.9696 16.0526C61.5872 14.5184 62.4681 13.3482 63.6122 12.5421C64.7629 11.736 66.1378 11.3329 67.737 11.3329C69.3363 11.3329 70.7112 11.736 71.8618 12.5421C73.0125 13.3482 73.8934 14.5184 74.5044 16.0526C75.122 17.5868 75.4308 19.4395 75.4308 21.6108C75.4308 23.7951 75.122 25.6609 74.5044 27.2081C73.8934 28.7488 73.0125 29.9254 71.8618 30.738C70.7177 31.5507 69.3428 31.957 67.737 31.957ZM67.737 28.9048C68.9852 28.9048 69.9701 28.2905 70.6917 27.0618C71.4198 25.8266 71.7838 24.0096 71.7838 21.6108C71.7838 20.0246 71.6181 18.6919 71.2865 17.6128C70.955 16.5336 70.4869 15.721 69.8823 15.175C69.2777 14.6224 68.5627 14.3461 67.737 14.3461C66.4954 14.3461 65.5137 14.9637 64.7921 16.1988C64.0706 17.4275 63.7065 19.2315 63.7 21.6108C63.6935 23.2035 63.8528 24.5427 64.1778 25.6284C64.5094 26.714 64.9774 27.5331 65.582 28.0857C66.1866 28.6318 66.9049 28.9048 67.737 28.9048ZM81.5961 16.5987L84.619 22.1276L87.6907 16.5987H91.4254L86.9105 24.0877L91.5034 31.5767H87.7882L84.619 26.1842L81.4791 31.5767H77.7346L82.2982 24.0877L77.8516 16.5987H81.5961ZM94.3118 31.5767V11.606H101.801C103.335 11.606 104.622 11.892 105.662 12.4641C106.709 13.0362 107.499 13.8228 108.032 14.8239C108.571 15.8185 108.841 16.9497 108.841 18.2174C108.841 19.498 108.571 20.6357 108.032 21.6303C107.492 22.625 106.696 23.4083 105.643 23.9804C104.59 24.546 103.293 24.8288 101.752 24.8288H96.7886V21.8546H101.264C102.162 21.8546 102.896 21.6986 103.468 21.3865C104.04 21.0745 104.463 20.6454 104.736 20.0994C105.015 19.5533 105.155 18.926 105.155 18.2174C105.155 17.5088 105.015 16.8847 104.736 16.3451C104.463 15.8055 104.037 15.3862 103.459 15.0872C102.886 14.7817 102.149 14.6289 101.245 14.6289H97.9295V31.5767H94.3118ZM111.828 31.5767V16.5987H115.25V19.095H115.406C115.679 18.2304 116.147 17.564 116.81 17.096C117.48 16.6214 118.244 16.3841 119.102 16.3841C119.297 16.3841 119.515 16.3939 119.755 16.4134C120.002 16.4264 120.207 16.4491 120.37 16.4816V19.7288C120.22 19.6768 119.983 19.6313 119.658 19.5923C119.339 19.5468 119.031 19.524 118.731 19.524C118.088 19.524 117.509 19.6638 116.996 19.9434C116.489 20.2164 116.089 20.5967 115.796 21.0843C115.504 21.5718 115.358 22.1341 115.358 22.7712V31.5767H111.828ZM128.632 31.8692C127.169 31.8692 125.901 31.5474 124.829 30.9038C123.756 30.2602 122.924 29.3599 122.332 28.2027C121.747 27.0456 121.455 25.6934 121.455 24.1462C121.455 22.599 121.747 21.2435 122.332 20.0799C122.924 18.9162 123.756 18.0126 124.829 17.369C125.901 16.7254 127.169 16.4036 128.632 16.4036C130.094 16.4036 131.362 16.7254 132.435 17.369C133.507 18.0126 134.336 18.9162 134.921 20.0799C135.513 21.2435 135.808 22.599 135.808 24.1462C135.808 25.6934 135.513 27.0456 134.921 28.2027C134.336 29.3599 133.507 30.2602 132.435 30.9038C131.362 31.5474 130.094 31.8692 128.632 31.8692ZM128.651 29.0413C129.444 29.0413 130.107 28.8235 130.64 28.388C131.173 27.9459 131.57 27.3543 131.83 26.6132C132.096 25.8721 132.23 25.0465 132.23 24.1364C132.23 23.2198 132.096 22.3909 131.83 21.6498C131.57 20.9022 131.173 20.3074 130.64 19.8653C130.107 19.4233 129.444 19.2023 128.651 19.2023C127.838 19.2023 127.162 19.4233 126.623 19.8653C126.09 20.3074 125.69 20.9022 125.423 21.6498C125.163 22.3909 125.033 23.2198 125.033 24.1364C125.033 25.0465 125.163 25.8721 125.423 26.6132C125.69 27.3543 126.09 27.9459 126.623 28.388C127.162 28.8235 127.838 29.0413 128.651 29.0413ZM141.128 16.5987L144.151 22.1276L147.222 16.5987H150.957L146.442 24.0877L151.035 31.5767H147.32L144.151 26.1842L141.011 31.5767H137.266L141.83 24.0877L137.383 16.5987H141.128ZM155.882 37.1934C155.4 37.1934 154.955 37.1544 154.546 37.0764C154.143 37.0049 153.821 36.9204 153.58 36.8229L154.399 34.073C154.913 34.2225 155.371 34.294 155.774 34.2875C156.177 34.281 156.532 34.1543 156.837 33.9072C157.149 33.6667 157.412 33.2636 157.627 32.6981L157.929 31.8887L152.498 16.5987H156.242L159.694 27.9102H159.85L163.312 16.5987H167.066L161.069 33.3904C160.79 34.1835 160.419 34.8629 159.958 35.4284C159.496 36.0005 158.93 36.4361 158.261 36.7351C157.598 37.0406 156.805 37.1934 155.882 37.1934Z" fill="white"/>
</g>
</svg>
