<svg width="227" height="55" viewBox="0 0 227 55" fill="none" xmlns="http://www.w3.org/2000/svg">
<path d="M72.7549 43.5713C70.3428 43.5713 68.2725 42.9609 66.5439 41.7402C64.8252 40.5098 63.502 38.7373 62.5742 36.4229C61.6563 34.0986 61.1973 31.3008 61.1973 28.0293C61.207 24.7578 61.6709 21.9746 62.5889 19.6797C63.5166 17.375 64.8398 15.6172 66.5586 14.4063C68.2871 13.1953 70.3525 12.5898 72.7549 12.5898C75.1572 12.5898 77.2227 13.1953 78.9512 14.4063C80.6797 15.6172 82.0029 17.375 82.9209 19.6797C83.8486 21.9844 84.3125 24.7676 84.3125 28.0293C84.3125 31.3105 83.8486 34.1133 82.9209 36.4375C82.0029 38.752 80.6797 40.5195 78.9512 41.7402C77.2324 42.9609 75.167 43.5713 72.7549 43.5713ZM72.7549 38.9863C74.6299 38.9863 76.1094 38.0635 77.1934 36.2178C78.2871 34.3623 78.834 31.6328 78.834 28.0293C78.834 25.6465 78.585 23.6445 78.0869 22.0234C77.5889 20.4023 76.8857 19.1816 75.9775 18.3613C75.0693 17.5312 73.9951 17.1162 72.7549 17.1162C70.8896 17.1162 69.415 18.0439 68.3311 19.8994C67.2471 21.7451 66.7002 24.4551 66.6904 28.0293C66.6807 30.4219 66.9199 32.4336 67.4082 34.0645C67.9063 35.6953 68.6094 36.9258 69.5176 37.7559C70.4258 38.5762 71.5049 38.9863 72.7549 38.9863ZM93.574 20.5L98.115 28.8057L102.729 20.5H108.34L101.557 31.75L108.457 43H102.876L98.115 34.8994L93.3982 43H87.7732L94.6287 31.75L87.949 20.5H93.574ZM112.676 43V13H123.926C126.23 13 128.164 13.4297 129.726 14.2891C131.299 15.1484 132.485 16.3301 133.286 17.834C134.096 19.3281 134.502 21.0273 134.502 22.9316C134.502 24.8555 134.096 26.5645 133.286 28.0586C132.475 29.5527 131.279 30.7295 129.697 31.5889C128.115 32.4385 126.167 32.8633 123.852 32.8633H116.396V28.3955H123.12C124.468 28.3955 125.571 28.1611 126.43 27.6924C127.29 27.2236 127.925 26.5791 128.335 25.7588C128.755 24.9385 128.965 23.9961 128.965 22.9316C128.965 21.8672 128.755 20.9297 128.335 20.1191C127.925 19.3086 127.285 18.6787 126.416 18.2295C125.556 17.7705 124.448 17.541 123.091 17.541H118.11V43H112.676ZM138.988 43V20.5H144.129V24.25H144.364C144.774 22.9512 145.477 21.9502 146.473 21.2471C147.479 20.5342 148.626 20.1777 149.916 20.1777C150.208 20.1777 150.536 20.1924 150.897 20.2217C151.268 20.2412 151.576 20.2754 151.82 20.3242V25.2021C151.595 25.124 151.239 25.0557 150.75 24.9971C150.272 24.9287 149.808 24.8945 149.359 24.8945C148.392 24.8945 147.523 25.1045 146.751 25.5244C145.99 25.9346 145.389 26.5059 144.95 27.2383C144.51 27.9707 144.291 28.8154 144.291 29.7725V43H138.988ZM164.231 43.4395C162.033 43.4395 160.129 42.9561 158.518 41.9893C156.906 41.0225 155.656 39.6699 154.768 37.9316C153.889 36.1934 153.449 34.1621 153.449 31.8379C153.449 29.5137 153.889 27.4775 154.768 25.7295C155.656 23.9814 156.906 22.624 158.518 21.6572C160.129 20.6904 162.033 20.207 164.231 20.207C166.428 20.207 168.332 20.6904 169.944 21.6572C171.555 22.624 172.8 23.9814 173.679 25.7295C174.568 27.4775 175.012 29.5137 175.012 31.8379C175.012 34.1621 174.568 36.1934 173.679 37.9316C172.8 39.6699 171.555 41.0225 169.944 41.9893C168.332 42.9561 166.428 43.4395 164.231 43.4395ZM164.26 39.1914C165.451 39.1914 166.448 38.8643 167.248 38.21C168.049 37.5459 168.645 36.6572 169.035 35.5439C169.436 34.4307 169.636 33.1904 169.636 31.8232C169.636 30.4463 169.436 29.2012 169.035 28.0879C168.645 26.9648 168.049 26.0713 167.248 25.4072C166.448 24.7432 165.451 24.4111 164.26 24.4111C163.039 24.4111 162.024 24.7432 161.213 25.4072C160.412 26.0713 159.812 26.9648 159.411 28.0879C159.021 29.2012 158.825 30.4463 158.825 31.8232C158.825 33.1904 159.021 34.4307 159.411 35.5439C159.812 36.6572 160.412 37.5459 161.213 38.21C162.024 38.8643 163.039 39.1914 164.26 39.1914ZM183.003 20.5L187.544 28.8057L192.158 20.5H197.768L190.986 31.75L197.885 43H192.304L187.544 34.8994L182.827 43H177.202L184.057 31.75L177.378 20.5H183.003ZM205.166 51.4375C204.443 51.4375 203.774 51.3789 203.159 51.2617C202.553 51.1543 202.07 51.0273 201.709 50.8809L202.939 46.75C203.711 46.9746 204.399 47.082 205.005 47.0723C205.61 47.0625 206.142 46.8721 206.601 46.501C207.07 46.1396 207.466 45.5342 207.788 44.6846L208.242 43.4688L200.083 20.5H205.708L210.893 37.4922H211.128L216.328 20.5H221.968L212.959 45.7246C212.539 46.916 211.982 47.9365 211.289 48.7861C210.595 49.6455 209.746 50.2998 208.74 50.749C207.744 51.208 206.552 51.4375 205.166 51.4375Z" fill="#091E42"/>
<path d="M11.8889 23V14.1111C11.8889 11.1643 13.0595 8.33811 15.1433 6.25437C17.227 4.17063 20.0532 3 23 3C25.9469 3 28.773 4.17063 30.8567 6.25437C32.9405 8.33811 34.1111 11.1643 34.1111 14.1111V23M7.44444 23H38.5556C41.0102 23 43 24.9898 43 27.4444V43C43 45.4546 41.0102 47.4444 38.5556 47.4444H7.44444C4.98985 47.4444 3 45.4546 3 43V27.4444C3 24.9898 4.98985 23 7.44444 23Z" stroke="#15294B" stroke-width="5" stroke-linecap="round" stroke-linejoin="round"/>
</svg>
